<svg id="visual" viewBox="0 0 960 540" width="960" height="540" xmlns="http://www.w3.org/2000/svg" xmlns:xlink="http://www.w3.org/1999/xlink" version="1.1"><rect x="0" y="0" width="960" height="540" fill="#FFFFFF"></rect><defs><linearGradient id="grad1_0" x1="43.8%" y1="100%" x2="100%" y2="0%"><stop offset="14.444444444444446%" stop-color="#ffffff" stop-opacity="1"></stop><stop offset="85.55555555555554%" stop-color="#ffffff" stop-opacity="1"></stop></linearGradient></defs><defs><linearGradient id="grad2_0" x1="0%" y1="100%" x2="56.3%" y2="0%"><stop offset="14.444444444444446%" stop-color="#ffffff" stop-opacity="1"></stop><stop offset="85.55555555555554%" stop-color="#ffffff" stop-opacity="1"></stop></linearGradient></defs><g transform="translate(960, 540)"><path d="M-319 0C-330.1 -37.5 -341.3 -75 -333.8 -108.5C-326.3 -142 -300.2 -171.5 -275.9 -200.4C-251.5 -229.4 -228.9 -257.8 -199.3 -274.3C-169.6 -290.7 -133 -295.1 -98.6 -303.4C-64.2 -311.7 -32.1 -323.8 0 -336L0 0Z" fill="#d7c8d1"></path></g><g transform="translate(0, 0)"><path d="M335 0C333.3 36 331.6 71.9 318.6 103.5C305.6 135.1 281.5 162.3 259.7 188.7C237.9 215 218.6 240.6 194.6 267.8C170.5 295 141.7 323.8 108.5 333.8C75.2 343.8 37.6 334.9 0 326L0 0Z" fill="#d7c8d1"></path></g></svg>