<svg id="visual" viewBox="0 0 900 600" width="900" height="600" xmlns="http://www.w3.org/2000/svg" xmlns:xlink="http://www.w3.org/1999/xlink" version="1.1"><rect x="0" y="0" width="900" height="600" fill="#FFFFFF"></rect><defs><linearGradient id="grad1_0" x1="33.3%" y1="0%" x2="100%" y2="100%"><stop offset="20%" stop-color="#845474" stop-opacity="1"></stop><stop offset="80%" stop-color="#845474" stop-opacity="1"></stop></linearGradient></defs><defs><linearGradient id="grad1_1" x1="33.3%" y1="0%" x2="100%" y2="100%"><stop offset="20%" stop-color="#845474" stop-opacity="1"></stop><stop offset="80%" stop-color="#ad8aa0" stop-opacity="1"></stop></linearGradient></defs><defs><linearGradient id="grad1_2" x1="33.3%" y1="0%" x2="100%" y2="100%"><stop offset="20%" stop-color="#d6c3cf" stop-opacity="1"></stop><stop offset="80%" stop-color="#ad8aa0" stop-opacity="1"></stop></linearGradient></defs><defs><linearGradient id="grad1_3" x1="33.3%" y1="0%" x2="100%" y2="100%"><stop offset="20%" stop-color="#d6c3cf" stop-opacity="1"></stop><stop offset="80%" stop-color="#ffffff" stop-opacity="1"></stop></linearGradient></defs><defs><linearGradient id="grad2_0" x1="0%" y1="0%" x2="66.7%" y2="100%"><stop offset="20%" stop-color="#845474" stop-opacity="1"></stop><stop offset="80%" stop-color="#845474" stop-opacity="1"></stop></linearGradient></defs><defs><linearGradient id="grad2_1" x1="0%" y1="0%" x2="66.7%" y2="100%"><stop offset="20%" stop-color="#ad8aa0" stop-opacity="1"></stop><stop offset="80%" stop-color="#845474" stop-opacity="1"></stop></linearGradient></defs><defs><linearGradient id="grad2_2" x1="0%" y1="0%" x2="66.7%" y2="100%"><stop offset="20%" stop-color="#ad8aa0" stop-opacity="1"></stop><stop offset="80%" stop-color="#d6c3cf" stop-opacity="1"></stop></linearGradient></defs><defs><linearGradient id="grad2_3" x1="0%" y1="0%" x2="66.7%" y2="100%"><stop offset="20%" stop-color="#ffffff" stop-opacity="1"></stop><stop offset="80%" stop-color="#d6c3cf" stop-opacity="1"></stop></linearGradient></defs><g transform="translate(900, 0)"><path d="M0 486.7C-54.1 487.3 -108.3 487.8 -150.4 462.9C-192.6 438 -222.8 387.6 -254.5 350.3C-286.3 313 -319.6 288.6 -355.2 258C-390.7 227.4 -428.5 190.5 -450.8 146.5C-473.1 102.4 -479.9 51.2 -486.7 0L0 0Z" fill="#eae1e7"></path><path d="M0 365.1C-40.6 365.5 -81.2 365.9 -112.8 347.2C-144.4 328.5 -167.1 290.7 -190.9 262.7C-214.7 234.7 -239.7 216.5 -266.4 193.5C-293 170.6 -321.4 142.9 -338.1 109.9C-354.8 76.8 -359.9 38.4 -365.1 0L0 0Z" fill="#c1a6b7"></path><path d="M0 243.4C-27.1 243.6 -54.1 243.9 -75.2 231.5C-96.3 219 -111.4 193.8 -127.3 175.2C-143.1 156.5 -159.8 144.3 -177.6 129C-195.4 113.7 -214.2 95.3 -225.4 73.2C-236.6 51.2 -240 25.6 -243.4 0L0 0Z" fill="#986f8a"></path><path d="M0 121.7C-13.5 121.8 -27.1 122 -37.6 115.7C-48.1 109.5 -55.7 96.9 -63.6 87.6C-71.6 78.2 -79.9 72.2 -88.8 64.5C-97.7 56.9 -107.1 47.6 -112.7 36.6C-118.3 25.6 -120 12.8 -121.7 0L0 0Z" fill="#845474"></path></g><g transform="translate(0, 600)"><path d="M0 -486.7C50.1 -481.7 100.2 -476.8 150.4 -462.9C200.6 -449.1 251 -426.5 282.1 -388.3C313.3 -350.2 325.1 -296.6 351.1 -255.1C377.1 -213.6 417.3 -184.2 442.2 -143.7C467.2 -103.2 477 -51.6 486.7 0L0 0Z" fill="#eae1e7"></path><path d="M0 -365.1C37.6 -361.3 75.1 -357.6 112.8 -347.2C150.5 -336.8 188.3 -319.8 211.6 -291.2C234.9 -262.7 243.8 -222.5 263.3 -191.3C282.8 -160.2 313 -138.1 331.7 -107.8C350.4 -77.4 357.7 -38.7 365.1 0L0 0Z" fill="#c1a6b7"></path><path d="M0 -243.4C25 -240.9 50.1 -238.4 75.2 -231.5C100.3 -224.6 125.5 -213.2 141.1 -194.2C156.6 -175.1 162.6 -148.3 175.6 -127.5C188.6 -106.8 208.6 -92.1 221.1 -71.8C233.6 -51.6 238.5 -25.8 243.4 0L0 0Z" fill="#986f8a"></path><path d="M0 -121.7C12.5 -120.4 25 -119.2 37.6 -115.7C50.2 -112.3 62.8 -106.6 70.5 -97.1C78.3 -87.6 81.3 -74.2 87.8 -63.8C94.3 -53.4 104.3 -46 110.6 -35.9C116.8 -25.8 119.2 -12.9 121.7 0L0 0Z" fill="#845474"></path></g></svg>